<svg width="160" height="161" viewBox="0 0 160 161" fill="none" xmlns="http://www.w3.org/2000/svg">
<path d="M79.9886 157.288C40.2466 149.334 11.4286 112.01 11.4286 68.514V28.927C11.4286 27.327 11.9542 25.7728 12.9141 24.4928C13.8739 23.2129 15.2451 22.2758 16.7991 21.8415L75.7836 4.745C78.526 3.94503 81.4512 3.94503 84.2164 4.745L143.201 21.8415C144.755 22.2986 146.103 23.2129 147.086 24.4928C148.046 25.7728 148.571 27.327 148.571 28.927V68.514C148.549 112.032 119.731 149.38 79.9886 157.288Z" fill="#69B42E"/>
<path fill-rule="evenodd" clip-rule="evenodd" d="M79.8744 4.14545C78.4938 4.15614 77.1171 4.35598 75.7836 4.74497L16.7991 21.8415C15.2451 22.2757 13.8739 23.2129 12.9141 24.4928C11.9542 25.7728 11.4286 27.327 11.4286 28.9269V68.514C11.4286 111.968 40.1914 149.262 79.8744 157.265V4.14545Z" fill="white" fill-opacity="0.15"/>
<path fill-rule="evenodd" clip-rule="evenodd" d="M61.7144 45.2199C61.7144 42.6951 63.7611 40.6484 66.2858 40.6484H93.7144C96.2391 40.6484 98.2858 42.6951 98.2858 45.2199V104.648C98.2858 107.173 96.2391 109.22 93.7144 109.22H66.2858C63.7611 109.22 61.7144 107.173 61.7144 104.648V45.2199ZM82.0572 105.334C82.0572 106.47 81.1362 107.391 80.0001 107.391C78.8639 107.391 77.9429 106.47 77.9429 105.334C77.9429 104.198 78.8639 103.277 80.0001 103.277C81.1362 103.277 82.0572 104.198 82.0572 105.334ZM66.7173 42.9342H71.0702V43.8484C71.0702 44.6059 71.6842 45.2199 72.4416 45.2199H86.613C87.3704 45.2199 87.9844 44.6059 87.9844 43.8484V42.9342H93.2828C94.7835 42.9342 96.0001 44.1507 96.0001 45.6514V99.6455C96.0001 101.146 94.7835 102.363 93.2828 102.363H66.7173C65.2166 102.363 64.0001 101.146 64.0001 99.6455V45.6514C64.0001 44.1507 65.2166 42.9342 66.7173 42.9342Z" fill="white"/>
<path fill-rule="evenodd" clip-rule="evenodd" d="M71.0702 42.9342H66.7173C65.2166 42.9342 64.0001 44.1507 64.0001 45.6514V99.6455C64.0001 101.146 65.2166 102.363 66.7173 102.363H93.2828C94.7835 102.363 96.0001 101.146 96.0001 99.6455V45.6514C96.0001 44.1507 94.7835 42.9342 93.2828 42.9342H87.9844V43.8484C87.9844 44.6059 87.3704 45.2199 86.613 45.2199H72.4416C71.6842 45.2199 71.0702 44.6059 71.0702 43.8484V42.9342Z" fill="white" fill-opacity="0.35"/>
</svg>
